<?xml version="1.0" encoding="UTF-8" standalone="no"?>
<!DOCTYPE svg PUBLIC "-//W3C//DTD SVG 1.1//EN" "http://www.w3.org/Graphics/SVG/1.1/DTD/svg11.dtd">
<svg version="1.1" xmlns="http://www.w3.org/2000/svg" xmlns:xlink="http://www.w3.org/1999/xlink" preserveAspectRatio="xMidYMid meet" viewBox="0 0 320 320" width="320" height="320"><defs><path d="M320 160C320 248.31 248.31 320 160 320C71.69 320 0 248.31 0 160C0 71.69 71.69 0 160 0C248.31 0 320 71.69 320 160Z" id="f540ChHKjV"></path><linearGradient id="gradientcL0WWJ3G1" gradientUnits="userSpaceOnUse" x1="0" y1="0" x2="160" y2="160"><stop style="stop-color: #26283a;stop-opacity: 1" offset="0%"></stop><stop style="stop-color: #06091d;stop-opacity: 1" offset="100%"></stop></linearGradient><path d="M94.38 97.66L107.5 97.66L107.5 255.16L94.38 255.16L94.38 97.66Z" id="e39w8SU3Ka"></path><path d="M81.25 235.47L120.63 235.47L120.63 255.16L81.25 255.16L81.25 235.47Z" id="fB2rjVH4N"></path><path d="M133.75 235.47C133.75 242.71 127.87 248.59 120.63 248.59C113.38 248.59 107.5 242.71 107.5 235.47C107.5 228.22 113.38 222.34 120.63 222.34C127.87 222.34 133.75 228.22 133.75 235.47Z" id="e1T1dD8lsl"></path><path d="M94.38 235.47C94.38 242.71 88.49 248.59 81.25 248.59C74.01 248.59 68.13 242.71 68.13 235.47C68.13 228.23 74.01 222.34 81.25 222.34C88.49 222.34 94.38 228.23 94.38 235.47Z" id="k1gkAGBB60"></path><path d="M160 97.66C160 115.77 145.3 130.47 127.19 130.47C109.08 130.47 94.38 115.77 94.38 97.66C94.38 79.55 109.08 64.84 127.19 64.84C145.3 64.84 160 79.55 160 97.66Z" id="c26yJ1AzU"></path><path d="M146.87 97.66C146.87 108.52 138.05 117.34 127.19 117.34C116.32 117.34 107.5 108.52 107.5 97.66C107.5 86.79 116.32 77.97 127.19 77.97C138.05 77.97 146.87 86.79 146.87 97.66Z" id="c4uhr3kW5"></path><path d="M107.5 97.66L160 97.66L160 150.16L107.5 150.16L107.5 97.66Z" id="b4lx7Qfvga"></path><path d="M146.88 97.66C146.88 112.14 138.05 123.91 127.19 123.91C116.32 123.91 107.5 112.14 107.5 97.66C107.5 83.17 116.32 71.41 127.19 71.41C138.05 71.41 146.88 83.17 146.88 97.66Z" id="b4qErhEXKg"></path><path d="M155.57 81.31L156.59 82.87L157.59 84.37L158.55 85.8L159.47 87.18L160.35 88.51L161.19 89.79L161.98 91.03L162.72 92.23L163.4 93.41L164.03 94.56L164.6 95.69L165.1 96.81L165.53 97.91L165.89 99.02L166.18 100.12L166.39 101.23L166.52 102.35L166.56 103.49L166.54 104.22L166.56 104.95L166.52 106.09L166.39 107.21L166.18 108.32L165.89 109.42L165.53 110.52L165.1 111.63L164.6 112.75L164.03 113.88L163.4 115.03L162.72 116.2L161.98 117.41L161.19 118.65L160.35 119.93L159.47 121.26L158.55 122.64L157.59 124.07L156.59 125.56L155.57 127.13L154.51 128.76L153.44 130.47L152.36 128.76L151.31 127.13L150.28 125.56L149.29 124.07L148.33 122.64L147.41 121.26L146.52 119.93L145.69 118.65L144.9 117.41L144.16 116.2L143.47 115.03L142.85 113.88L142.28 112.75L141.78 111.63L141.34 110.52L140.98 109.42L140.69 108.32L140.48 107.21L140.36 106.09L140.31 104.95L140.34 104.22L140.31 103.49L140.36 102.35L140.48 101.23L140.69 100.12L140.98 99.02L141.34 97.91L141.78 96.81L142.28 95.69L142.84 94.56L143.47 93.41L144.16 92.23L144.9 91.03L145.69 89.79L146.52 88.51L147.41 87.18L148.33 85.8L149.29 84.37L150.28 82.87L151.31 81.31L152.36 79.68L153.44 77.97L154.51 79.68L155.57 81.31Z" id="a8eWUFpF9N"></path><path d="M173.13 97.66L186.25 97.66L186.25 255.16L173.13 255.16L173.13 97.66Z" id="b7Lu38l0S"></path><path d="M160 235.47L199.38 235.47L199.38 255.16L160 255.16L160 235.47Z" id="btB8GgHmV"></path><path d="M212.5 235.47C212.5 242.71 206.62 248.59 199.38 248.59C192.13 248.59 186.25 242.71 186.25 235.47C186.25 228.22 192.13 222.34 199.38 222.34C206.62 222.34 212.5 228.22 212.5 235.47Z" id="b3abLObazc"></path><path d="M173.13 235.47C173.13 242.71 167.24 248.59 160 248.59C152.76 248.59 146.88 242.71 146.88 235.47C146.88 228.23 152.76 222.34 160 222.34C167.24 222.34 173.13 228.23 173.13 235.47Z" id="as6Fj6jbT"></path><path d="M238.75 97.66C238.75 115.77 224.05 130.47 205.94 130.47C187.83 130.47 173.13 115.77 173.13 97.66C173.13 79.55 187.83 64.84 205.94 64.84C224.05 64.84 238.75 79.55 238.75 97.66Z" id="c74aFZUVD"></path><path d="M186.25 99.1L238.75 99.1L238.75 137.03L186.25 137.03L186.25 99.1Z" id="bfwjEdbu8"></path><path d="M225.62 97.66C225.62 112.14 216.8 123.91 205.94 123.91C195.07 123.91 186.25 112.14 186.25 97.66C186.25 83.17 195.07 71.41 205.94 71.41C216.8 71.41 225.62 83.17 225.62 97.66Z" id="gdk65olGk"></path><path d="M237.3 85.8L238.22 87.18L239.1 88.51L239.94 89.79L240.73 91.03L241.47 92.23L242.15 93.41L242.78 94.56L243.35 95.69L243.85 96.81L244.28 97.91L244.64 99.02L244.93 100.12L245.14 101.23L245.27 102.35L245.31 103.49L245.29 104.22L245.31 104.95L245.27 106.09L245.14 107.21L244.93 108.32L244.64 109.42L244.28 110.52L243.85 111.63L243.35 112.75L242.78 113.88L242.15 115.03L241.47 116.2L240.73 117.41L239.94 118.65L239.1 119.93L238.22 121.26L237.3 122.64L236.34 124.07L235.34 125.56L234.32 127.13L233.26 128.76L232.19 130.47L231.11 128.76L230.06 127.13L229.03 125.56L228.04 124.07L227.08 122.64L226.16 121.26L225.27 119.93L224.44 118.65L223.65 117.41L222.91 116.2L222.22 115.03L221.6 113.88L221.03 112.75L220.53 111.63L220.09 110.52L219.73 109.42L219.44 108.32L219.23 107.21L219.11 106.09L219.06 104.95L219.09 104.22L219.06 103.49L219.11 102.35L219.23 101.23L219.44 100.12L219.73 99.02L220.09 97.91L220.53 96.81L221.03 95.69L221.59 94.56L222.22 93.41L222.91 92.23L223.65 91.03L224.44 89.79L225.27 88.51L226.16 87.18L227.08 85.8L228.04 84.37L229.03 82.87L230.06 81.31L231.11 79.68L232.19 77.97L233.26 79.68L234.32 81.31L235.34 82.87L236.34 84.37L236.34 84.37L237.3 85.8Z" id="fkfOqKB0"></path><path d="M160 143.59L225.62 143.59L225.62 150.16L160 150.16L160 143.59Z" id="c1k8LeB8Oj"></path><path d="M81.25 143.59L146.88 143.59L146.88 150.16L81.25 150.16L81.25 143.59Z" id="ceCxj6hcS"></path><path d="M209.22 222.34C211.03 222.34 212.5 223.81 212.5 225.63C212.5 230.22 212.5 240.72 212.5 245.31C212.5 247.12 211.03 248.59 209.22 248.59C204.63 248.59 196.74 248.59 192.81 248.59C189.19 248.59 186.25 245.66 186.25 242.04C186.25 238.1 186.25 230.22 186.25 225.63C186.25 223.81 187.72 222.34 189.53 222.34C194.13 222.34 204.63 222.34 209.22 222.34Z" id="cma8YvaTt"></path><path d="M169.84 222.34C171.66 222.34 173.13 223.81 173.13 225.63C173.13 230.22 173.13 237.88 173.13 241.77C173.13 245.54 170.07 248.59 166.3 248.59C162.41 248.59 154.75 248.59 150.16 248.59C148.34 248.59 146.88 247.12 146.88 245.31C146.88 240.72 146.88 230.22 146.88 225.63C146.88 223.81 148.34 222.34 150.16 222.34C154.75 222.34 165.25 222.34 169.84 222.34Z" id="h67SxLnEY"></path><path d="M130.47 222.34C132.28 222.34 133.75 223.81 133.75 225.63C133.75 230.22 133.75 240.72 133.75 245.31C133.75 247.12 132.28 248.59 130.47 248.59C125.88 248.59 117.99 248.59 114.06 248.59C110.44 248.59 107.5 245.66 107.5 242.04C107.5 238.1 107.5 230.22 107.5 225.63C107.5 223.81 108.97 222.34 110.78 222.34C115.38 222.34 125.88 222.34 130.47 222.34Z" id="b21zNDq46I"></path><path d="M91.09 222.34C92.91 222.34 94.38 223.81 94.38 225.63C94.38 230.22 94.38 237.88 94.38 241.77C94.38 245.54 91.32 248.59 87.55 248.59C83.66 248.59 76 248.59 71.41 248.59C69.59 248.59 68.13 247.12 68.13 245.31C68.13 240.72 68.13 230.22 68.13 225.63C68.13 223.81 69.59 222.34 71.41 222.34C76 222.34 86.5 222.34 91.09 222.34Z" id="att1GXxjR"></path><path d="M0 -21.34L80 -21.34L80 0L0 0L0 -21.34Z" id="a480hryvxk"></path></defs><g><g><g><use xlink:href="#f540ChHKjV" opacity="1" fill="url(#gradientcL0WWJ3G1)"></use></g><g><g><g><use xlink:href="#e39w8SU3Ka" opacity="1" fill="#ffffff" fill-opacity="1"></use></g><g><use xlink:href="#fB2rjVH4N" opacity="1" fill="#ffffff" fill-opacity="1"></use></g><g><use xlink:href="#e1T1dD8lsl" opacity="1" fill="#06091d" fill-opacity="1"></use></g><g><use xlink:href="#k1gkAGBB60" opacity="1" fill="#06091d" fill-opacity="1"></use></g><g><use xlink:href="#c26yJ1AzU" opacity="1" fill="#ffffff" fill-opacity="1"></use></g><g><use xlink:href="#c4uhr3kW5" opacity="1" fill="#06091d" fill-opacity="1"></use></g><g><use xlink:href="#b4lx7Qfvga" opacity="1" fill="#05091d" fill-opacity="1"></use></g><g><use xlink:href="#b4qErhEXKg" opacity="1" fill="#06091d" fill-opacity="1"></use></g><g><use xlink:href="#a8eWUFpF9N" opacity="1" fill="#ffffff" fill-opacity="1"></use></g></g><g><g><g><use xlink:href="#b7Lu38l0S" opacity="1" fill="#ffffff" fill-opacity="1"></use></g><g><use xlink:href="#btB8GgHmV" opacity="1" fill="#ffffff" fill-opacity="1"></use></g><g><use xlink:href="#b3abLObazc" opacity="1" fill="#06091d" fill-opacity="1"></use></g><g><use xlink:href="#as6Fj6jbT" opacity="1" fill="#06091d" fill-opacity="1"></use></g><g><use xlink:href="#c74aFZUVD" opacity="1" fill="#ffffff" fill-opacity="1"></use></g><g><use xlink:href="#bfwjEdbu8" opacity="1" fill="#05091d" fill-opacity="1"></use></g><g><use xlink:href="#gdk65olGk" opacity="1" fill="#05091d" fill-opacity="1"></use></g></g><g><use xlink:href="#fkfOqKB0" opacity="1" fill="#ffffff" fill-opacity="1"></use></g></g><g><use xlink:href="#c1k8LeB8Oj" opacity="1" fill="#ffffff" fill-opacity="1"></use></g><g><use xlink:href="#ceCxj6hcS" opacity="1" fill="#ffffff" fill-opacity="1"></use></g><g><g><use xlink:href="#cma8YvaTt" opacity="1" fill="#06091d" fill-opacity="1"></use></g><g><use xlink:href="#h67SxLnEY" opacity="1" fill="#06091d" fill-opacity="1"></use></g></g><g><g><use xlink:href="#b21zNDq46I" opacity="1" fill="#06091d" fill-opacity="1"></use></g><g><use xlink:href="#att1GXxjR" opacity="1" fill="#06091d" fill-opacity="1"></use></g></g></g><g><use xlink:href="#a480hryvxk" opacity="1" fill="#191b2e" fill-opacity="1"></use></g></g></g></svg>