<?xml version="1.0" encoding="UTF-8" standalone="no"?>
<!DOCTYPE svg PUBLIC "-//W3C//DTD SVG 1.1//EN" "http://www.w3.org/Graphics/SVG/1.1/DTD/svg11.dtd">
<svg version="1.1" xmlns="http://www.w3.org/2000/svg" xmlns:xlink="http://www.w3.org/1999/xlink" preserveAspectRatio="xMidYMid meet" viewBox="0 0 320 320" width="320" height="320">
  <defs><path d="M0 0L320 0L320 320L0 320L0 0Z" id="d34Ns6AkVJ"></path><path d="M60 65L80 65L80 305L60 305L60 65Z" id="afwZt2Aya"></path><path d="M40 275L100 275L100 305L40 305L40 275Z" id="i3Uhm8Y7SK"></path><path d="M120 275C120 286.04 111.04 295 100 295C88.96 295 80 286.04 80 275C80 263.96 88.96 255 100 255C111.04 255 120 263.96 120 275Z" id="b2mTIGcJaa"></path><path d="M60 275C60 286.04 51.04 295 40 295C28.96 295 20 286.04 20 275C20 263.96 28.96 255 40 255C51.04 255 60 263.96 60 275Z" id="a18bOMP8Ee"></path><path d="M160 65C160 92.6 137.6 115 110 115C82.4 115 60 92.6 60 65C60 37.4 82.4 15 110 15C137.6 15 160 37.4 160 65Z" id="a6TUQeyS0I"></path><path d="M140 65C140 81.56 126.56 95 110 95C93.44 95 80 81.56 80 65C80 48.44 93.44 35 110 35C126.56 35 140 48.44 140 65Z" id="a16HYvxPKV"></path><path d="M80 65L160 65L160 145L80 145L80 65Z" id="a20mbArd1r"></path><path d="M140 65C140 87.08 126.56 105 110 105C93.44 105 80 87.08 80 65C80 42.92 93.44 25 110 25C126.56 25 140 42.92 140 65Z" id="f9ufHdD2s"></path><path d="M152.18 38.45L153.24 40.09L154.29 41.69L155.32 43.24L156.32 44.75L157.3 46.22L158.26 47.65L159.19 49.04L160.09 50.39L160.97 51.72L161.81 53.01L162.62 54.28L163.4 55.52L164.14 56.74L164.85 57.94L165.51 59.12L166.14 60.28L166.73 61.43L167.27 62.58L167.77 63.71L168.22 64.83L168.62 65.95L168.98 67.07L169.29 68.19L169.54 69.32L169.74 70.45L169.88 71.58L169.97 72.73L170 73.89L169.97 75L170 76.11L169.97 77.27L169.88 78.42L169.74 79.55L169.54 80.68L169.29 81.81L168.98 82.93L168.62 84.05L168.22 85.17L167.77 86.29L167.27 87.42L166.73 88.56L166.14 89.72L165.51 90.88L164.85 92.06L164.14 93.26L163.4 94.48L162.62 95.72L161.81 96.99L160.97 98.28L160.09 99.61L159.19 100.96L158.26 102.35L157.3 103.78L156.32 105.25L155.32 106.76L154.29 108.31L153.24 109.91L152.18 111.55L151.1 113.25L150 115L148.9 113.25L147.82 111.55L146.76 109.91L145.71 108.31L144.68 106.76L143.68 105.25L142.7 103.78L141.74 102.35L140.81 100.96L139.91 99.61L139.03 98.28L138.19 96.99L137.38 95.72L136.6 94.48L135.86 93.26L135.15 92.06L134.49 90.88L133.86 89.72L133.27 88.57L132.73 87.43L132.23 86.29L131.78 85.17L131.38 84.05L131.02 82.93L130.71 81.81L130.46 80.68L130.26 79.55L130.12 78.42L130.03 77.27L130 76.11L130.03 75L130 73.89L130.03 72.73L130.12 71.58L130.26 70.45L130.46 69.32L130.71 68.19L131.02 67.07L131.38 65.95L131.78 64.83L132.23 63.71L132.73 62.58L133.27 61.43L133.86 60.28L134.49 59.12L135.15 57.94L135.86 56.74L136.6 55.52L137.38 54.28L138.19 53.01L139.03 51.72L139.91 50.39L140.81 49.04L141.74 47.65L142.7 46.22L143.68 44.75L144.68 43.24L145.71 41.69L146.76 40.09L147.82 38.45L148.9 36.75L150 35L151.1 36.75L152.18 38.45Z" id="f1LSIhzcvs"></path><path d="M180 65L200 65L200 305L180 305L180 65Z" id="a3oBKqqHn"></path><path d="M160 275L220 275L220 305L160 305L160 275Z" id="kLVayBKT8"></path><path d="M240 275C240 286.04 231.04 295 220 295C208.96 295 200 286.04 200 275C200 263.96 208.96 255 220 255C231.04 255 240 263.96 240 275Z" id="c2BYUchrY"></path><path d="M180 275C180 286.04 171.04 295 160 295C148.96 295 140 286.04 140 275C140 263.96 148.96 255 160 255C171.04 255 180 263.96 180 275Z" id="bq1vJTxDQ"></path><path d="M280 65C280 92.6 257.6 115 230 115C202.4 115 180 92.6 180 65C180 37.4 202.4 15 230 15C257.6 15 280 37.4 280 65Z" id="a35Pkds7GF"></path><path d="M200 67.2L280 67.2L280 125L200 125L200 67.2Z" id="a5XaMfpM8g"></path><path d="M260 65C260 87.08 246.56 105 230 105C213.44 105 200 87.08 200 65C200 42.92 213.44 25 230 25C246.56 25 260 42.92 260 65Z" id="by7YtuTeC"></path><path d="M275.32 43.24L276.32 44.75L277.3 46.22L278.26 47.65L279.19 49.04L280.09 50.39L280.97 51.72L281.81 53.01L282.62 54.28L283.4 55.52L284.14 56.74L284.85 57.94L285.51 59.12L286.14 60.28L286.73 61.43L287.27 62.58L287.77 63.71L288.22 64.83L288.62 65.95L288.98 67.07L289.29 68.19L289.54 69.32L289.74 70.45L289.88 71.58L289.97 72.73L290 73.89L289.97 75L290 76.11L289.97 77.27L289.88 78.42L289.74 79.55L289.54 80.68L289.29 81.81L288.98 82.93L288.62 84.05L288.22 85.17L287.77 86.29L287.27 87.42L286.73 88.56L286.14 89.72L285.51 90.88L284.85 92.06L284.14 93.26L283.4 94.48L282.62 95.72L281.81 96.99L280.97 98.28L280.09 99.61L279.19 100.96L278.26 102.35L277.3 103.78L276.32 105.25L275.32 106.76L274.29 108.31L273.24 109.91L272.18 111.55L271.1 113.25L270 115L268.9 113.25L267.82 111.55L266.76 109.91L265.71 108.31L264.68 106.76L263.68 105.25L262.7 103.78L261.74 102.35L260.81 100.96L259.91 99.61L259.03 98.28L258.19 96.99L257.38 95.72L256.6 94.48L255.86 93.26L255.15 92.06L254.49 90.88L253.86 89.72L253.27 88.57L252.73 87.43L252.23 86.29L251.78 85.17L251.38 84.05L251.02 82.93L250.71 81.81L250.46 80.68L250.26 79.55L250.12 78.42L250.03 77.27L250 76.11L250.03 75L250 73.89L250.03 72.73L250.12 71.58L250.26 70.45L250.46 69.32L250.71 68.19L251.02 67.07L251.38 65.95L251.78 64.83L252.23 63.71L252.73 62.58L253.27 61.43L253.86 60.28L254.49 59.12L255.15 57.94L255.86 56.74L256.6 55.52L257.38 54.28L258.19 53.01L259.03 51.72L259.91 50.39L260.81 49.04L261.74 47.65L262.7 46.22L263.68 44.75L264.68 43.24L265.71 41.69L266.76 40.09L267.82 38.45L268.9 36.75L270 35L271.1 36.75L272.18 38.45L273.24 40.09L274.29 41.69L274.29 41.69L275.32 43.24Z" id="c62RdQnPf"></path><path d="M160 135L260 135L260 145L160 145L160 135Z" id="a9uS26LnL"></path><path d="M40 135L140 135L140 145L40 145L40 135Z" id="a23kDHJBN"></path><path d="M235 255C237.76 255 240 257.24 240 260C240 267 240 283 240 290C240 292.76 237.76 295 235 295C228 295 215.99 295 209.99 295C204.47 295 200 290.53 200 285.01C200 279.01 200 267 200 260C200 257.24 202.24 255 205 255C212 255 228 255 235 255Z" id="a3UovhxkGz"></path><path d="M175 255C177.76 255 180 257.24 180 260C180 267 180 278.68 180 284.6C180 290.34 175.34 295 169.6 295C163.68 295 152 295 145 295C142.24 295 140 292.76 140 290C140 283 140 267 140 260C140 257.24 142.24 255 145 255C152 255 168 255 175 255Z" id="c3Znd2LhE8"></path><path d="M115 255C117.76 255 120 257.24 120 260C120 267 120 283 120 290C120 292.76 117.76 295 115 295C108 295 95.99 295 89.99 295C84.47 295 80 290.53 80 285.01C80 279.01 80 267 80 260C80 257.24 82.24 255 85 255C92 255 108 255 115 255Z" id="a3nrhlRkJ9"></path><path d="M55 255C57.76 255 60 257.24 60 260C60 267 60 278.68 60 284.6C60 290.34 55.34 295 49.6 295C43.68 295 32 295 25 295C22.24 295 20 292.76 20 290C20 283 20 267 20 260C20 257.24 22.24 255 25 255C32 255 48 255 55 255Z" id="b1rveI6Hz"></path></defs><g><g><g><use xlink:href="#d34Ns6AkVJ" opacity="1" fill="#06091d" fill-opacity="1"></use></g><g><g><g><use xlink:href="#afwZt2Aya" opacity="1" fill="#ffffff" fill-opacity="1"></use></g><g><use xlink:href="#i3Uhm8Y7SK" opacity="1" fill="#ffffff" fill-opacity="1"></use></g><g><use xlink:href="#b2mTIGcJaa" opacity="1" fill="#06091d" fill-opacity="1"></use></g><g><use xlink:href="#a18bOMP8Ee" opacity="1" fill="#06091d" fill-opacity="1"></use></g><g><use xlink:href="#a6TUQeyS0I" opacity="1" fill="#ffffff" fill-opacity="1"></use></g><g><use xlink:href="#a16HYvxPKV" opacity="1" fill="#06091d" fill-opacity="1"></use></g><g><use xlink:href="#a20mbArd1r" opacity="1" fill="#05091d" fill-opacity="1"></use></g><g><use xlink:href="#f9ufHdD2s" opacity="1" fill="#06091d" fill-opacity="1"></use></g><g><use xlink:href="#f1LSIhzcvs" opacity="1" fill="#ffffff" fill-opacity="1"></use></g></g><g><g><g><use xlink:href="#a3oBKqqHn" opacity="1" fill="#ffffff" fill-opacity="1"></use></g><g><use xlink:href="#kLVayBKT8" opacity="1" fill="#ffffff" fill-opacity="1"></use></g><g><use xlink:href="#c2BYUchrY" opacity="1" fill="#06091d" fill-opacity="1"></use></g><g><use xlink:href="#bq1vJTxDQ" opacity="1" fill="#06091d" fill-opacity="1"></use></g><g><use xlink:href="#a35Pkds7GF" opacity="1" fill="#ffffff" fill-opacity="1"></use></g><g><use xlink:href="#a5XaMfpM8g" opacity="1" fill="#05091d" fill-opacity="1"></use></g><g><use xlink:href="#by7YtuTeC" opacity="1" fill="#05091d" fill-opacity="1"></use></g></g><g><use xlink:href="#c62RdQnPf" opacity="1" fill="#ffffff" fill-opacity="1"></use></g></g><g><use xlink:href="#a9uS26LnL" opacity="1" fill="#ffffff" fill-opacity="1"></use></g><g><use xlink:href="#a23kDHJBN" opacity="1" fill="#ffffff" fill-opacity="1"></use></g><g><g><use xlink:href="#a3UovhxkGz" opacity="1" fill="#06091d" fill-opacity="1"></use></g><g><use xlink:href="#c3Znd2LhE8" opacity="1" fill="#06091d" fill-opacity="1"></use></g></g><g><g><use xlink:href="#a3nrhlRkJ9" opacity="1" fill="#06091d" fill-opacity="1"></use></g><g><use xlink:href="#b1rveI6Hz" opacity="1" fill="#06091d" fill-opacity="1"></use></g></g></g></g></g>
</svg>
